<?xml version="1.0" encoding="UTF-8"?>
<!-- Generator: Adobe Illustrator 15.0.2, SVG Export Plug-In . SVG Version: 6.00 Build 0)  -->
<!DOCTYPE svg PUBLIC "-//W3C//DTD SVG 1.1//EN" "http://www.w3.org/Graphics/SVG/1.1/DTD/svg11.dtd">
<svg xmlns="http://www.w3.org/2000/svg" xmlns:xlink="http://www.w3.org/1999/xlink" version="1.1" id="Layer_1" x="0px" y="0px" width="512px" height="391.688px" viewBox="0.333 0 512 391.688" enable-background="new 0.333 0 512 391.688" xml:space="preserve">
<path d="M30.796,226.318h377.533L294.938,339.682c-11.899,11.906-11.899,31.184,0,43.084c11.887,11.899,31.19,11.893,43.077,0  l165.393-165.386c5.725-5.712,8.924-13.453,8.924-21.539c0-8.092-3.213-15.84-8.924-21.551L338.016,8.925  C332.065,2.975,324.278,0,316.478,0c-7.802,0-15.603,2.968-21.539,8.918c-11.899,11.906-11.899,31.184,0,43.084l113.391,113.384  H30.796c-16.822,0-30.463,13.645-30.463,30.463C0.333,212.674,13.974,226.318,30.796,226.318z" fill="#696969"/>
</svg>
